<mxfile host="app.diagrams.net" agent="Mozilla/5.0 (Windows NT 10.0; Win64; x64) AppleWebKit/537.36 (KHTML, like Gecko) Chrome/128.0.0.0 Safari/537.36 Edg/128.0.0.0" version="24.7.14">
  <diagram name="第 1 页" id="HXD9hJc-r6mOpSp5LZMr">
    <mxGraphModel dx="1228" dy="1871" grid="1" gridSize="10" guides="1" tooltips="1" connect="1" arrows="1" fold="1" page="1" pageScale="1" pageWidth="827" pageHeight="1169" math="0" shadow="0">
      <root>
        <mxCell id="0" />
        <mxCell id="1" parent="0" />
        <mxCell id="4GzgXwksy4O0eHDeEKzl-70" value="" style="rounded=0;whiteSpace=wrap;html=1;fillColor=#bac8d3;strokeColor=#23445d;" vertex="1" parent="1">
          <mxGeometry x="50" y="55" width="60" height="80" as="geometry" />
        </mxCell>
        <mxCell id="4GzgXwksy4O0eHDeEKzl-71" style="edgeStyle=orthogonalEdgeStyle;rounded=0;orthogonalLoop=1;jettySize=auto;html=1;entryX=0;entryY=0;entryDx=0;entryDy=0;" edge="1" parent="1" source="4GzgXwksy4O0eHDeEKzl-72" target="4GzgXwksy4O0eHDeEKzl-77">
          <mxGeometry relative="1" as="geometry" />
        </mxCell>
        <mxCell id="4GzgXwksy4O0eHDeEKzl-72" value="" style="rounded=0;whiteSpace=wrap;html=1;fillColor=#bac8d3;strokeColor=#23445d;" vertex="1" parent="1">
          <mxGeometry x="60" y="65" width="60" height="80" as="geometry" />
        </mxCell>
        <mxCell id="4GzgXwksy4O0eHDeEKzl-73" value="" style="rounded=0;whiteSpace=wrap;html=1;fillColor=#fad9d5;strokeColor=#ae4132;" vertex="1" parent="1">
          <mxGeometry x="200" y="50" width="60" height="80" as="geometry" />
        </mxCell>
        <mxCell id="4GzgXwksy4O0eHDeEKzl-74" value="" style="rounded=0;whiteSpace=wrap;html=1;fillColor=#fad9d5;strokeColor=#ae4132;" vertex="1" parent="1">
          <mxGeometry x="210" y="60" width="60" height="80" as="geometry" />
        </mxCell>
        <mxCell id="4GzgXwksy4O0eHDeEKzl-75" value="" style="rounded=0;whiteSpace=wrap;html=1;fillColor=#b1ddf0;strokeColor=#10739e;" vertex="1" parent="1">
          <mxGeometry x="220" y="70" width="60" height="80" as="geometry" />
        </mxCell>
        <mxCell id="4GzgXwksy4O0eHDeEKzl-76" value="" style="rounded=0;whiteSpace=wrap;html=1;fillColor=#b1ddf0;strokeColor=#10739e;" vertex="1" parent="1">
          <mxGeometry x="230" y="80" width="60" height="80" as="geometry" />
        </mxCell>
        <mxCell id="4GzgXwksy4O0eHDeEKzl-77" value="" style="shape=orEllipse;perimeter=ellipsePerimeter;whiteSpace=wrap;html=1;backgroundOutline=1;rotation=-45;" vertex="1" parent="1">
          <mxGeometry x="150" y="95" width="20" height="20" as="geometry" />
        </mxCell>
        <mxCell id="4GzgXwksy4O0eHDeEKzl-78" value="" style="shape=orEllipse;perimeter=ellipsePerimeter;whiteSpace=wrap;html=1;backgroundOutline=1;rotation=45;" vertex="1" parent="1">
          <mxGeometry x="310" y="95" width="20" height="20" as="geometry" />
        </mxCell>
        <mxCell id="4GzgXwksy4O0eHDeEKzl-79" style="edgeStyle=orthogonalEdgeStyle;rounded=0;orthogonalLoop=1;jettySize=auto;html=1;entryX=0;entryY=0.693;entryDx=0;entryDy=0;entryPerimeter=0;" edge="1" parent="1" source="4GzgXwksy4O0eHDeEKzl-77" target="4GzgXwksy4O0eHDeEKzl-73">
          <mxGeometry relative="1" as="geometry" />
        </mxCell>
        <mxCell id="4GzgXwksy4O0eHDeEKzl-80" value="" style="endArrow=classic;html=1;rounded=0;exitX=1.001;exitY=0.31;exitDx=0;exitDy=0;exitPerimeter=0;" edge="1" parent="1" source="4GzgXwksy4O0eHDeEKzl-76">
          <mxGeometry width="50" height="50" relative="1" as="geometry">
            <mxPoint x="340" y="150" as="sourcePoint" />
            <mxPoint x="310" y="105" as="targetPoint" />
          </mxGeometry>
        </mxCell>
        <mxCell id="4GzgXwksy4O0eHDeEKzl-81" value="" style="curved=1;endArrow=classic;html=1;rounded=0;entryX=0;entryY=0;entryDx=0;entryDy=0;exitX=1;exitY=0;exitDx=0;exitDy=0;" edge="1" parent="1" source="4GzgXwksy4O0eHDeEKzl-77" target="4GzgXwksy4O0eHDeEKzl-78">
          <mxGeometry width="50" height="50" relative="1" as="geometry">
            <mxPoint x="195" y="20" as="sourcePoint" />
            <mxPoint x="365" y="20" as="targetPoint" />
            <Array as="points">
              <mxPoint x="240" y="-120" />
            </Array>
          </mxGeometry>
        </mxCell>
        <mxCell id="4GzgXwksy4O0eHDeEKzl-82" value="" style="shape=orEllipse;perimeter=ellipsePerimeter;whiteSpace=wrap;html=1;backgroundOutline=1;rotation=45;" vertex="1" parent="1">
          <mxGeometry x="480" y="95" width="20" height="20" as="geometry" />
        </mxCell>
        <mxCell id="4GzgXwksy4O0eHDeEKzl-83" style="edgeStyle=orthogonalEdgeStyle;rounded=0;orthogonalLoop=1;jettySize=auto;html=1;entryX=-0.019;entryY=0.938;entryDx=0;entryDy=0;entryPerimeter=0;" edge="1" parent="1" source="4GzgXwksy4O0eHDeEKzl-82" target="4GzgXwksy4O0eHDeEKzl-96">
          <mxGeometry relative="1" as="geometry">
            <mxPoint x="530" y="110" as="targetPoint" />
          </mxGeometry>
        </mxCell>
        <mxCell id="4GzgXwksy4O0eHDeEKzl-84" value="" style="endArrow=classic;html=1;rounded=0;entryX=0;entryY=1;entryDx=0;entryDy=0;exitX=1.001;exitY=0.31;exitDx=0;exitDy=0;exitPerimeter=0;" edge="1" parent="1" target="4GzgXwksy4O0eHDeEKzl-82">
          <mxGeometry width="50" height="50" relative="1" as="geometry">
            <mxPoint x="480" y="105" as="sourcePoint" />
            <mxPoint x="550" y="100" as="targetPoint" />
          </mxGeometry>
        </mxCell>
        <mxCell id="4GzgXwksy4O0eHDeEKzl-85" value="" style="shape=orEllipse;perimeter=ellipsePerimeter;whiteSpace=wrap;html=1;backgroundOutline=1;rotation=45;" vertex="1" parent="1">
          <mxGeometry x="670" y="95" width="20" height="20" as="geometry" />
        </mxCell>
        <mxCell id="4GzgXwksy4O0eHDeEKzl-86" style="edgeStyle=orthogonalEdgeStyle;rounded=0;orthogonalLoop=1;jettySize=auto;html=1;" edge="1" parent="1" source="4GzgXwksy4O0eHDeEKzl-85">
          <mxGeometry relative="1" as="geometry">
            <mxPoint x="710" y="105" as="targetPoint" />
            <Array as="points">
              <mxPoint x="710" y="105" />
              <mxPoint x="710" y="105" />
            </Array>
          </mxGeometry>
        </mxCell>
        <mxCell id="4GzgXwksy4O0eHDeEKzl-87" value="" style="endArrow=classic;html=1;rounded=0;entryX=0;entryY=1;entryDx=0;entryDy=0;" edge="1" parent="1">
          <mxGeometry width="50" height="50" relative="1" as="geometry">
            <mxPoint x="650" y="104.70999999999998" as="sourcePoint" />
            <mxPoint x="670.0000000000002" y="104.70999999999998" as="targetPoint" />
          </mxGeometry>
        </mxCell>
        <mxCell id="4GzgXwksy4O0eHDeEKzl-88" value="" style="endArrow=none;html=1;rounded=0;exitX=1.006;exitY=0.192;exitDx=0;exitDy=0;exitPerimeter=0;entryX=0;entryY=1;entryDx=0;entryDy=0;" edge="1" parent="1" source="4GzgXwksy4O0eHDeEKzl-95" target="4GzgXwksy4O0eHDeEKzl-82">
          <mxGeometry width="50" height="50" relative="1" as="geometry">
            <mxPoint x="510" y="120" as="sourcePoint" />
            <mxPoint x="560" y="70" as="targetPoint" />
          </mxGeometry>
        </mxCell>
        <mxCell id="4GzgXwksy4O0eHDeEKzl-89" style="edgeStyle=orthogonalEdgeStyle;rounded=0;orthogonalLoop=1;jettySize=auto;html=1;entryX=0;entryY=0.813;entryDx=0;entryDy=0;entryPerimeter=0;strokeColor=#000000;fontColor=#143642;fillColor=#FAE5C7;" edge="1" parent="1" source="4GzgXwksy4O0eHDeEKzl-78" target="4GzgXwksy4O0eHDeEKzl-90">
          <mxGeometry relative="1" as="geometry" />
        </mxCell>
        <mxCell id="4GzgXwksy4O0eHDeEKzl-90" value="" style="rounded=0;whiteSpace=wrap;html=1;fillColor=#bac8d3;strokeColor=#23445d;" vertex="1" parent="1">
          <mxGeometry x="350" y="40" width="60" height="80" as="geometry" />
        </mxCell>
        <mxCell id="4GzgXwksy4O0eHDeEKzl-91" value="" style="rounded=0;whiteSpace=wrap;html=1;fillColor=#bac8d3;strokeColor=#23445d;" vertex="1" parent="1">
          <mxGeometry x="360" y="50" width="60" height="80" as="geometry" />
        </mxCell>
        <mxCell id="4GzgXwksy4O0eHDeEKzl-92" value="" style="rounded=0;whiteSpace=wrap;html=1;fillColor=#d0cee2;strokeColor=#56517e;" vertex="1" parent="1">
          <mxGeometry x="370" y="60" width="60" height="80" as="geometry" />
        </mxCell>
        <mxCell id="4GzgXwksy4O0eHDeEKzl-93" value="" style="rounded=0;whiteSpace=wrap;html=1;fillColor=#d0cee2;strokeColor=#56517e;" vertex="1" parent="1">
          <mxGeometry x="380" y="70" width="60" height="80" as="geometry" />
        </mxCell>
        <mxCell id="4GzgXwksy4O0eHDeEKzl-94" value="" style="rounded=0;whiteSpace=wrap;html=1;fillColor=#6d8764;strokeColor=#3A5431;fontColor=#ffffff;" vertex="1" parent="1">
          <mxGeometry x="390" y="80" width="60" height="80" as="geometry" />
        </mxCell>
        <mxCell id="4GzgXwksy4O0eHDeEKzl-95" value="" style="rounded=0;whiteSpace=wrap;html=1;fillColor=#6d8764;strokeColor=#3A5431;fontColor=#ffffff;" vertex="1" parent="1">
          <mxGeometry x="400" y="90" width="60" height="80" as="geometry" />
        </mxCell>
        <mxCell id="4GzgXwksy4O0eHDeEKzl-96" value="" style="rounded=0;whiteSpace=wrap;html=1;fillColor=#bac8d3;strokeColor=#23445d;" vertex="1" parent="1">
          <mxGeometry x="520" y="30" width="60" height="80" as="geometry" />
        </mxCell>
        <mxCell id="4GzgXwksy4O0eHDeEKzl-97" value="" style="rounded=0;whiteSpace=wrap;html=1;fillColor=#bac8d3;strokeColor=#23445d;" vertex="1" parent="1">
          <mxGeometry x="530" y="40" width="60" height="80" as="geometry" />
        </mxCell>
        <mxCell id="4GzgXwksy4O0eHDeEKzl-98" value="" style="rounded=0;whiteSpace=wrap;html=1;fillColor=#d0cee2;strokeColor=#56517e;" vertex="1" parent="1">
          <mxGeometry x="540" y="50" width="60" height="80" as="geometry" />
        </mxCell>
        <mxCell id="4GzgXwksy4O0eHDeEKzl-99" value="" style="rounded=0;whiteSpace=wrap;html=1;fillColor=#d0cee2;strokeColor=#56517e;" vertex="1" parent="1">
          <mxGeometry x="550" y="60" width="60" height="80" as="geometry" />
        </mxCell>
        <mxCell id="4GzgXwksy4O0eHDeEKzl-100" value="" style="rounded=0;whiteSpace=wrap;html=1;fillColor=#6d8764;strokeColor=#3A5431;fontColor=#ffffff;" vertex="1" parent="1">
          <mxGeometry x="560" y="70" width="60" height="80" as="geometry" />
        </mxCell>
        <mxCell id="4GzgXwksy4O0eHDeEKzl-101" value="" style="rounded=0;whiteSpace=wrap;html=1;fillColor=#6d8764;strokeColor=#3A5431;fontColor=#ffffff;" vertex="1" parent="1">
          <mxGeometry x="570" y="80" width="60" height="80" as="geometry" />
        </mxCell>
        <mxCell id="4GzgXwksy4O0eHDeEKzl-102" value="" style="rounded=0;whiteSpace=wrap;html=1;fillColor=#0050ef;strokeColor=#001DBC;fontColor=#ffffff;" vertex="1" parent="1">
          <mxGeometry x="580" y="90" width="60" height="80" as="geometry" />
        </mxCell>
        <mxCell id="4GzgXwksy4O0eHDeEKzl-103" value="" style="rounded=0;whiteSpace=wrap;html=1;fillColor=#0050ef;strokeColor=#001DBC;fontColor=#ffffff;" vertex="1" parent="1">
          <mxGeometry x="590" y="100" width="60" height="80" as="geometry" />
        </mxCell>
        <mxCell id="4GzgXwksy4O0eHDeEKzl-104" value="" style="curved=1;endArrow=classic;html=1;rounded=0;entryX=0;entryY=0;entryDx=0;entryDy=0;exitX=1;exitY=0;exitDx=0;exitDy=0;" edge="1" parent="1" target="4GzgXwksy4O0eHDeEKzl-82">
          <mxGeometry width="50" height="50" relative="1" as="geometry">
            <mxPoint x="320" y="95" as="sourcePoint" />
            <mxPoint x="480" y="95" as="targetPoint" />
            <Array as="points">
              <mxPoint x="410" y="-120" />
            </Array>
          </mxGeometry>
        </mxCell>
        <mxCell id="4GzgXwksy4O0eHDeEKzl-105" value="" style="curved=1;endArrow=classic;html=1;rounded=0;entryX=0;entryY=0;entryDx=0;entryDy=0;" edge="1" parent="1" target="4GzgXwksy4O0eHDeEKzl-85">
          <mxGeometry width="50" height="50" relative="1" as="geometry">
            <mxPoint x="490" y="95" as="sourcePoint" />
            <mxPoint x="665" y="95" as="targetPoint" />
            <Array as="points">
              <mxPoint x="585" y="-120" />
            </Array>
          </mxGeometry>
        </mxCell>
        <mxCell id="4GzgXwksy4O0eHDeEKzl-106" value="" style="rounded=0;whiteSpace=wrap;html=1;fillColor=#bac8d3;strokeColor=#23445d;" vertex="1" parent="1">
          <mxGeometry x="60" y="335" width="60" height="80" as="geometry" />
        </mxCell>
        <mxCell id="4GzgXwksy4O0eHDeEKzl-107" style="edgeStyle=orthogonalEdgeStyle;rounded=0;orthogonalLoop=1;jettySize=auto;html=1;entryX=0;entryY=0;entryDx=0;entryDy=0;" edge="1" parent="1" source="4GzgXwksy4O0eHDeEKzl-108" target="4GzgXwksy4O0eHDeEKzl-113">
          <mxGeometry relative="1" as="geometry" />
        </mxCell>
        <mxCell id="4GzgXwksy4O0eHDeEKzl-108" value="" style="rounded=0;whiteSpace=wrap;html=1;fillColor=#bac8d3;strokeColor=#23445d;" vertex="1" parent="1">
          <mxGeometry x="70" y="345" width="60" height="80" as="geometry" />
        </mxCell>
        <mxCell id="4GzgXwksy4O0eHDeEKzl-109" value="" style="rounded=0;whiteSpace=wrap;html=1;fillColor=#fad9d5;strokeColor=#ae4132;" vertex="1" parent="1">
          <mxGeometry x="210" y="330" width="60" height="80" as="geometry" />
        </mxCell>
        <mxCell id="4GzgXwksy4O0eHDeEKzl-110" value="" style="rounded=0;whiteSpace=wrap;html=1;fillColor=#fad9d5;strokeColor=#ae4132;" vertex="1" parent="1">
          <mxGeometry x="220" y="340" width="60" height="80" as="geometry" />
        </mxCell>
        <mxCell id="4GzgXwksy4O0eHDeEKzl-111" value="" style="rounded=0;whiteSpace=wrap;html=1;fillColor=#b1ddf0;strokeColor=#10739e;" vertex="1" parent="1">
          <mxGeometry x="230" y="350" width="60" height="80" as="geometry" />
        </mxCell>
        <mxCell id="4GzgXwksy4O0eHDeEKzl-112" value="" style="rounded=0;whiteSpace=wrap;html=1;fillColor=#b1ddf0;strokeColor=#10739e;" vertex="1" parent="1">
          <mxGeometry x="240" y="360" width="60" height="80" as="geometry" />
        </mxCell>
        <mxCell id="4GzgXwksy4O0eHDeEKzl-113" value="" style="shape=orEllipse;perimeter=ellipsePerimeter;whiteSpace=wrap;html=1;backgroundOutline=1;rotation=-45;" vertex="1" parent="1">
          <mxGeometry x="160" y="375" width="20" height="20" as="geometry" />
        </mxCell>
        <mxCell id="4GzgXwksy4O0eHDeEKzl-114" value="" style="shape=orEllipse;perimeter=ellipsePerimeter;whiteSpace=wrap;html=1;backgroundOutline=1;rotation=45;" vertex="1" parent="1">
          <mxGeometry x="320" y="375" width="20" height="20" as="geometry" />
        </mxCell>
        <mxCell id="4GzgXwksy4O0eHDeEKzl-115" style="edgeStyle=orthogonalEdgeStyle;rounded=0;orthogonalLoop=1;jettySize=auto;html=1;entryX=0;entryY=0.693;entryDx=0;entryDy=0;entryPerimeter=0;" edge="1" parent="1" source="4GzgXwksy4O0eHDeEKzl-113" target="4GzgXwksy4O0eHDeEKzl-109">
          <mxGeometry relative="1" as="geometry" />
        </mxCell>
        <mxCell id="4GzgXwksy4O0eHDeEKzl-116" value="" style="endArrow=classic;html=1;rounded=0;exitX=1.001;exitY=0.31;exitDx=0;exitDy=0;exitPerimeter=0;" edge="1" parent="1" source="4GzgXwksy4O0eHDeEKzl-112">
          <mxGeometry width="50" height="50" relative="1" as="geometry">
            <mxPoint x="350" y="430" as="sourcePoint" />
            <mxPoint x="320" y="385" as="targetPoint" />
          </mxGeometry>
        </mxCell>
        <mxCell id="4GzgXwksy4O0eHDeEKzl-117" value="" style="curved=1;endArrow=classic;html=1;rounded=0;entryX=0;entryY=0;entryDx=0;entryDy=0;exitX=1;exitY=0;exitDx=0;exitDy=0;" edge="1" parent="1" source="4GzgXwksy4O0eHDeEKzl-113" target="4GzgXwksy4O0eHDeEKzl-114">
          <mxGeometry width="50" height="50" relative="1" as="geometry">
            <mxPoint x="205" y="300" as="sourcePoint" />
            <mxPoint x="375" y="300" as="targetPoint" />
            <Array as="points">
              <mxPoint x="240" y="260" />
            </Array>
          </mxGeometry>
        </mxCell>
        <mxCell id="4GzgXwksy4O0eHDeEKzl-118" value="" style="shape=orEllipse;perimeter=ellipsePerimeter;whiteSpace=wrap;html=1;backgroundOutline=1;rotation=45;" vertex="1" parent="1">
          <mxGeometry x="490" y="375" width="20" height="20" as="geometry" />
        </mxCell>
        <mxCell id="4GzgXwksy4O0eHDeEKzl-119" style="edgeStyle=orthogonalEdgeStyle;rounded=0;orthogonalLoop=1;jettySize=auto;html=1;entryX=-0.019;entryY=0.938;entryDx=0;entryDy=0;entryPerimeter=0;" edge="1" parent="1" source="4GzgXwksy4O0eHDeEKzl-118" target="4GzgXwksy4O0eHDeEKzl-132">
          <mxGeometry relative="1" as="geometry">
            <mxPoint x="540" y="390" as="targetPoint" />
          </mxGeometry>
        </mxCell>
        <mxCell id="4GzgXwksy4O0eHDeEKzl-120" value="" style="endArrow=classic;html=1;rounded=0;entryX=0;entryY=1;entryDx=0;entryDy=0;exitX=1.001;exitY=0.31;exitDx=0;exitDy=0;exitPerimeter=0;" edge="1" parent="1" target="4GzgXwksy4O0eHDeEKzl-118">
          <mxGeometry width="50" height="50" relative="1" as="geometry">
            <mxPoint x="490" y="385" as="sourcePoint" />
            <mxPoint x="560" y="380" as="targetPoint" />
          </mxGeometry>
        </mxCell>
        <mxCell id="4GzgXwksy4O0eHDeEKzl-121" value="" style="shape=orEllipse;perimeter=ellipsePerimeter;whiteSpace=wrap;html=1;backgroundOutline=1;rotation=45;" vertex="1" parent="1">
          <mxGeometry x="680" y="375" width="20" height="20" as="geometry" />
        </mxCell>
        <mxCell id="4GzgXwksy4O0eHDeEKzl-122" style="edgeStyle=orthogonalEdgeStyle;rounded=0;orthogonalLoop=1;jettySize=auto;html=1;" edge="1" parent="1" source="4GzgXwksy4O0eHDeEKzl-121">
          <mxGeometry relative="1" as="geometry">
            <mxPoint x="720" y="385" as="targetPoint" />
            <Array as="points">
              <mxPoint x="720" y="385" />
              <mxPoint x="720" y="385" />
            </Array>
          </mxGeometry>
        </mxCell>
        <mxCell id="4GzgXwksy4O0eHDeEKzl-123" value="" style="endArrow=classic;html=1;rounded=0;entryX=0;entryY=1;entryDx=0;entryDy=0;" edge="1" parent="1">
          <mxGeometry width="50" height="50" relative="1" as="geometry">
            <mxPoint x="660" y="384.71" as="sourcePoint" />
            <mxPoint x="680.0000000000002" y="384.71" as="targetPoint" />
          </mxGeometry>
        </mxCell>
        <mxCell id="4GzgXwksy4O0eHDeEKzl-124" value="" style="endArrow=none;html=1;rounded=0;exitX=1.006;exitY=0.192;exitDx=0;exitDy=0;exitPerimeter=0;entryX=0;entryY=1;entryDx=0;entryDy=0;" edge="1" parent="1" source="4GzgXwksy4O0eHDeEKzl-131" target="4GzgXwksy4O0eHDeEKzl-118">
          <mxGeometry width="50" height="50" relative="1" as="geometry">
            <mxPoint x="520" y="400" as="sourcePoint" />
            <mxPoint x="570" y="350" as="targetPoint" />
          </mxGeometry>
        </mxCell>
        <mxCell id="4GzgXwksy4O0eHDeEKzl-125" style="edgeStyle=orthogonalEdgeStyle;rounded=0;orthogonalLoop=1;jettySize=auto;html=1;entryX=0;entryY=0.813;entryDx=0;entryDy=0;entryPerimeter=0;strokeColor=#000000;fontColor=#143642;fillColor=#FAE5C7;" edge="1" parent="1" source="4GzgXwksy4O0eHDeEKzl-114" target="4GzgXwksy4O0eHDeEKzl-126">
          <mxGeometry relative="1" as="geometry" />
        </mxCell>
        <mxCell id="4GzgXwksy4O0eHDeEKzl-126" value="" style="rounded=0;whiteSpace=wrap;html=1;fillColor=#bac8d3;strokeColor=#23445d;" vertex="1" parent="1">
          <mxGeometry x="360" y="320" width="60" height="80" as="geometry" />
        </mxCell>
        <mxCell id="4GzgXwksy4O0eHDeEKzl-127" value="" style="rounded=0;whiteSpace=wrap;html=1;fillColor=#bac8d3;strokeColor=#23445d;" vertex="1" parent="1">
          <mxGeometry x="370" y="330" width="60" height="80" as="geometry" />
        </mxCell>
        <mxCell id="4GzgXwksy4O0eHDeEKzl-128" value="" style="rounded=0;whiteSpace=wrap;html=1;fillColor=#d0cee2;strokeColor=#56517e;" vertex="1" parent="1">
          <mxGeometry x="380" y="340" width="60" height="80" as="geometry" />
        </mxCell>
        <mxCell id="4GzgXwksy4O0eHDeEKzl-129" value="" style="rounded=0;whiteSpace=wrap;html=1;fillColor=#d0cee2;strokeColor=#56517e;" vertex="1" parent="1">
          <mxGeometry x="390" y="350" width="60" height="80" as="geometry" />
        </mxCell>
        <mxCell id="4GzgXwksy4O0eHDeEKzl-130" value="" style="rounded=0;whiteSpace=wrap;html=1;fillColor=#6d8764;strokeColor=#3A5431;fontColor=#ffffff;" vertex="1" parent="1">
          <mxGeometry x="400" y="360" width="60" height="80" as="geometry" />
        </mxCell>
        <mxCell id="4GzgXwksy4O0eHDeEKzl-131" value="" style="rounded=0;whiteSpace=wrap;html=1;fillColor=#6d8764;strokeColor=#3A5431;fontColor=#ffffff;" vertex="1" parent="1">
          <mxGeometry x="410" y="370" width="60" height="80" as="geometry" />
        </mxCell>
        <mxCell id="4GzgXwksy4O0eHDeEKzl-132" value="" style="rounded=0;whiteSpace=wrap;html=1;fillColor=#bac8d3;strokeColor=#23445d;" vertex="1" parent="1">
          <mxGeometry x="530" y="310" width="60" height="80" as="geometry" />
        </mxCell>
        <mxCell id="4GzgXwksy4O0eHDeEKzl-133" value="" style="rounded=0;whiteSpace=wrap;html=1;fillColor=#bac8d3;strokeColor=#23445d;" vertex="1" parent="1">
          <mxGeometry x="540" y="320" width="60" height="80" as="geometry" />
        </mxCell>
        <mxCell id="4GzgXwksy4O0eHDeEKzl-134" value="" style="rounded=0;whiteSpace=wrap;html=1;fillColor=#d0cee2;strokeColor=#56517e;" vertex="1" parent="1">
          <mxGeometry x="550" y="330" width="60" height="80" as="geometry" />
        </mxCell>
        <mxCell id="4GzgXwksy4O0eHDeEKzl-135" value="" style="rounded=0;whiteSpace=wrap;html=1;fillColor=#d0cee2;strokeColor=#56517e;" vertex="1" parent="1">
          <mxGeometry x="560" y="340" width="60" height="80" as="geometry" />
        </mxCell>
        <mxCell id="4GzgXwksy4O0eHDeEKzl-136" value="" style="rounded=0;whiteSpace=wrap;html=1;fillColor=#6d8764;strokeColor=#3A5431;fontColor=#ffffff;" vertex="1" parent="1">
          <mxGeometry x="570" y="350" width="60" height="80" as="geometry" />
        </mxCell>
        <mxCell id="4GzgXwksy4O0eHDeEKzl-137" value="" style="rounded=0;whiteSpace=wrap;html=1;fillColor=#6d8764;strokeColor=#3A5431;fontColor=#ffffff;" vertex="1" parent="1">
          <mxGeometry x="580" y="360" width="60" height="80" as="geometry" />
        </mxCell>
        <mxCell id="4GzgXwksy4O0eHDeEKzl-138" value="" style="rounded=0;whiteSpace=wrap;html=1;fillColor=#0050ef;strokeColor=#001DBC;fontColor=#ffffff;" vertex="1" parent="1">
          <mxGeometry x="590" y="370" width="60" height="80" as="geometry" />
        </mxCell>
        <mxCell id="4GzgXwksy4O0eHDeEKzl-139" value="" style="rounded=0;whiteSpace=wrap;html=1;fillColor=#0050ef;strokeColor=#001DBC;fontColor=#ffffff;" vertex="1" parent="1">
          <mxGeometry x="600" y="380" width="60" height="80" as="geometry" />
        </mxCell>
        <mxCell id="4GzgXwksy4O0eHDeEKzl-140" value="" style="curved=1;endArrow=classic;html=1;rounded=0;entryX=0;entryY=0;entryDx=0;entryDy=0;exitX=1;exitY=0;exitDx=0;exitDy=0;" edge="1" parent="1" target="4GzgXwksy4O0eHDeEKzl-118">
          <mxGeometry width="50" height="50" relative="1" as="geometry">
            <mxPoint x="330" y="375" as="sourcePoint" />
            <mxPoint x="490" y="375" as="targetPoint" />
            <Array as="points">
              <mxPoint x="420" y="260" />
            </Array>
          </mxGeometry>
        </mxCell>
        <mxCell id="4GzgXwksy4O0eHDeEKzl-141" value="" style="curved=1;endArrow=classic;html=1;rounded=0;entryX=0;entryY=0;entryDx=0;entryDy=0;" edge="1" parent="1" target="4GzgXwksy4O0eHDeEKzl-121">
          <mxGeometry width="50" height="50" relative="1" as="geometry">
            <mxPoint x="500" y="375" as="sourcePoint" />
            <mxPoint x="675" y="375" as="targetPoint" />
            <Array as="points">
              <mxPoint x="600" y="260" />
            </Array>
          </mxGeometry>
        </mxCell>
        <mxCell id="4GzgXwksy4O0eHDeEKzl-142" value="" style="curved=1;endArrow=classic;html=1;rounded=0;entryX=0;entryY=0;entryDx=0;entryDy=0;exitX=1;exitY=0;exitDx=0;exitDy=0;" edge="1" parent="1" target="4GzgXwksy4O0eHDeEKzl-118">
          <mxGeometry width="50" height="50" relative="1" as="geometry">
            <mxPoint x="170" y="375" as="sourcePoint" />
            <mxPoint x="330" y="375" as="targetPoint" />
            <Array as="points">
              <mxPoint x="320" y="140" />
            </Array>
          </mxGeometry>
        </mxCell>
        <mxCell id="4GzgXwksy4O0eHDeEKzl-143" value="" style="curved=1;endArrow=classic;html=1;rounded=0;exitX=1;exitY=0;exitDx=0;exitDy=0;" edge="1" parent="1">
          <mxGeometry width="50" height="50" relative="1" as="geometry">
            <mxPoint x="330" y="375" as="sourcePoint" />
            <mxPoint x="690" y="370" as="targetPoint" />
            <Array as="points">
              <mxPoint x="510" y="140" />
            </Array>
          </mxGeometry>
        </mxCell>
        <mxCell id="4GzgXwksy4O0eHDeEKzl-144" value="" style="curved=1;endArrow=classic;html=1;rounded=0;exitX=1;exitY=0;exitDx=0;exitDy=0;" edge="1" parent="1" source="4GzgXwksy4O0eHDeEKzl-113">
          <mxGeometry width="50" height="50" relative="1" as="geometry">
            <mxPoint x="225" y="605" as="sourcePoint" />
            <mxPoint x="690" y="370" as="targetPoint" />
            <Array as="points">
              <mxPoint x="250" y="250" />
              <mxPoint x="440" y="220" />
              <mxPoint x="600" y="250" />
            </Array>
          </mxGeometry>
        </mxCell>
        <mxCell id="4GzgXwksy4O0eHDeEKzl-145" value="&lt;font style=&quot;font-size: 14px;&quot;&gt;Resnet&lt;/font&gt;" style="text;html=1;align=center;verticalAlign=middle;whiteSpace=wrap;rounded=0;fontColor=#143642;" vertex="1" parent="1">
          <mxGeometry x="50" y="10" width="60" height="30" as="geometry" />
        </mxCell>
        <mxCell id="4GzgXwksy4O0eHDeEKzl-147" value="&lt;font style=&quot;font-size: 14px;&quot;&gt;DenseNet&lt;/font&gt;" style="text;html=1;align=center;verticalAlign=middle;whiteSpace=wrap;rounded=0;fontColor=#143642;" vertex="1" parent="1">
          <mxGeometry x="55" y="290" width="70" height="30" as="geometry" />
        </mxCell>
        <mxCell id="4GzgXwksy4O0eHDeEKzl-149" value="&lt;font style=&quot;font-size: 14px;&quot;&gt;VoVNet&lt;/font&gt;" style="text;html=1;align=center;verticalAlign=middle;whiteSpace=wrap;rounded=0;fontColor=#143642;" vertex="1" parent="1">
          <mxGeometry x="55" y="610" width="60" height="30" as="geometry" />
        </mxCell>
        <mxCell id="4GzgXwksy4O0eHDeEKzl-150" value="" style="rounded=0;whiteSpace=wrap;html=1;fillColor=#bac8d3;strokeColor=#23445d;" vertex="1" parent="1">
          <mxGeometry x="55" y="655" width="60" height="80" as="geometry" />
        </mxCell>
        <mxCell id="4GzgXwksy4O0eHDeEKzl-151" style="edgeStyle=orthogonalEdgeStyle;rounded=0;orthogonalLoop=1;jettySize=auto;html=1;entryX=0;entryY=0;entryDx=0;entryDy=0;" edge="1" parent="1" source="4GzgXwksy4O0eHDeEKzl-152" target="4GzgXwksy4O0eHDeEKzl-157">
          <mxGeometry relative="1" as="geometry" />
        </mxCell>
        <mxCell id="4GzgXwksy4O0eHDeEKzl-152" value="" style="rounded=0;whiteSpace=wrap;html=1;fillColor=#bac8d3;strokeColor=#23445d;" vertex="1" parent="1">
          <mxGeometry x="65" y="665" width="60" height="80" as="geometry" />
        </mxCell>
        <mxCell id="4GzgXwksy4O0eHDeEKzl-153" value="" style="rounded=0;whiteSpace=wrap;html=1;fillColor=#fad9d5;strokeColor=#ae4132;" vertex="1" parent="1">
          <mxGeometry x="205" y="650" width="60" height="80" as="geometry" />
        </mxCell>
        <mxCell id="4GzgXwksy4O0eHDeEKzl-154" value="" style="rounded=0;whiteSpace=wrap;html=1;fillColor=#fad9d5;strokeColor=#ae4132;" vertex="1" parent="1">
          <mxGeometry x="215" y="660" width="60" height="80" as="geometry" />
        </mxCell>
        <mxCell id="4GzgXwksy4O0eHDeEKzl-155" value="" style="rounded=0;whiteSpace=wrap;html=1;fillColor=#b1ddf0;strokeColor=#10739e;" vertex="1" parent="1">
          <mxGeometry x="225" y="670" width="60" height="80" as="geometry" />
        </mxCell>
        <mxCell id="4GzgXwksy4O0eHDeEKzl-156" value="" style="rounded=0;whiteSpace=wrap;html=1;fillColor=#b1ddf0;strokeColor=#10739e;" vertex="1" parent="1">
          <mxGeometry x="235" y="680" width="60" height="80" as="geometry" />
        </mxCell>
        <mxCell id="4GzgXwksy4O0eHDeEKzl-157" value="" style="shape=orEllipse;perimeter=ellipsePerimeter;whiteSpace=wrap;html=1;backgroundOutline=1;rotation=-45;" vertex="1" parent="1">
          <mxGeometry x="155" y="695" width="20" height="20" as="geometry" />
        </mxCell>
        <mxCell id="4GzgXwksy4O0eHDeEKzl-158" value="" style="shape=orEllipse;perimeter=ellipsePerimeter;whiteSpace=wrap;html=1;backgroundOutline=1;rotation=45;" vertex="1" parent="1">
          <mxGeometry x="315" y="695" width="20" height="20" as="geometry" />
        </mxCell>
        <mxCell id="4GzgXwksy4O0eHDeEKzl-159" style="edgeStyle=orthogonalEdgeStyle;rounded=0;orthogonalLoop=1;jettySize=auto;html=1;entryX=0;entryY=0.693;entryDx=0;entryDy=0;entryPerimeter=0;" edge="1" parent="1" source="4GzgXwksy4O0eHDeEKzl-157" target="4GzgXwksy4O0eHDeEKzl-153">
          <mxGeometry relative="1" as="geometry" />
        </mxCell>
        <mxCell id="4GzgXwksy4O0eHDeEKzl-160" value="" style="endArrow=classic;html=1;rounded=0;exitX=1.001;exitY=0.31;exitDx=0;exitDy=0;exitPerimeter=0;" edge="1" parent="1" source="4GzgXwksy4O0eHDeEKzl-156">
          <mxGeometry width="50" height="50" relative="1" as="geometry">
            <mxPoint x="345" y="750" as="sourcePoint" />
            <mxPoint x="315" y="705" as="targetPoint" />
          </mxGeometry>
        </mxCell>
        <mxCell id="4GzgXwksy4O0eHDeEKzl-162" value="" style="shape=orEllipse;perimeter=ellipsePerimeter;whiteSpace=wrap;html=1;backgroundOutline=1;rotation=45;" vertex="1" parent="1">
          <mxGeometry x="485" y="695" width="20" height="20" as="geometry" />
        </mxCell>
        <mxCell id="4GzgXwksy4O0eHDeEKzl-163" style="edgeStyle=orthogonalEdgeStyle;rounded=0;orthogonalLoop=1;jettySize=auto;html=1;entryX=-0.019;entryY=0.938;entryDx=0;entryDy=0;entryPerimeter=0;" edge="1" parent="1" source="4GzgXwksy4O0eHDeEKzl-162" target="4GzgXwksy4O0eHDeEKzl-176">
          <mxGeometry relative="1" as="geometry">
            <mxPoint x="535" y="710" as="targetPoint" />
          </mxGeometry>
        </mxCell>
        <mxCell id="4GzgXwksy4O0eHDeEKzl-164" value="" style="endArrow=classic;html=1;rounded=0;entryX=0;entryY=1;entryDx=0;entryDy=0;exitX=1.001;exitY=0.31;exitDx=0;exitDy=0;exitPerimeter=0;" edge="1" parent="1" target="4GzgXwksy4O0eHDeEKzl-162">
          <mxGeometry width="50" height="50" relative="1" as="geometry">
            <mxPoint x="485" y="705" as="sourcePoint" />
            <mxPoint x="555" y="700" as="targetPoint" />
          </mxGeometry>
        </mxCell>
        <mxCell id="4GzgXwksy4O0eHDeEKzl-165" value="" style="shape=orEllipse;perimeter=ellipsePerimeter;whiteSpace=wrap;html=1;backgroundOutline=1;rotation=45;" vertex="1" parent="1">
          <mxGeometry x="675" y="695" width="20" height="20" as="geometry" />
        </mxCell>
        <mxCell id="4GzgXwksy4O0eHDeEKzl-166" style="edgeStyle=orthogonalEdgeStyle;rounded=0;orthogonalLoop=1;jettySize=auto;html=1;" edge="1" parent="1" source="4GzgXwksy4O0eHDeEKzl-165">
          <mxGeometry relative="1" as="geometry">
            <mxPoint x="715" y="705" as="targetPoint" />
            <Array as="points">
              <mxPoint x="715" y="705" />
              <mxPoint x="715" y="705" />
            </Array>
          </mxGeometry>
        </mxCell>
        <mxCell id="4GzgXwksy4O0eHDeEKzl-167" value="" style="endArrow=classic;html=1;rounded=0;entryX=0;entryY=1;entryDx=0;entryDy=0;" edge="1" parent="1">
          <mxGeometry width="50" height="50" relative="1" as="geometry">
            <mxPoint x="655" y="704.71" as="sourcePoint" />
            <mxPoint x="675.0000000000002" y="704.71" as="targetPoint" />
          </mxGeometry>
        </mxCell>
        <mxCell id="4GzgXwksy4O0eHDeEKzl-168" value="" style="endArrow=none;html=1;rounded=0;exitX=1.006;exitY=0.192;exitDx=0;exitDy=0;exitPerimeter=0;entryX=0;entryY=1;entryDx=0;entryDy=0;" edge="1" parent="1" source="4GzgXwksy4O0eHDeEKzl-175" target="4GzgXwksy4O0eHDeEKzl-162">
          <mxGeometry width="50" height="50" relative="1" as="geometry">
            <mxPoint x="515" y="720" as="sourcePoint" />
            <mxPoint x="565" y="670" as="targetPoint" />
          </mxGeometry>
        </mxCell>
        <mxCell id="4GzgXwksy4O0eHDeEKzl-169" style="edgeStyle=orthogonalEdgeStyle;rounded=0;orthogonalLoop=1;jettySize=auto;html=1;entryX=0;entryY=0.813;entryDx=0;entryDy=0;entryPerimeter=0;strokeColor=#000000;fontColor=#143642;fillColor=#FAE5C7;" edge="1" parent="1" source="4GzgXwksy4O0eHDeEKzl-158" target="4GzgXwksy4O0eHDeEKzl-170">
          <mxGeometry relative="1" as="geometry" />
        </mxCell>
        <mxCell id="4GzgXwksy4O0eHDeEKzl-170" value="" style="rounded=0;whiteSpace=wrap;html=1;fillColor=#bac8d3;strokeColor=#23445d;" vertex="1" parent="1">
          <mxGeometry x="355" y="640" width="60" height="80" as="geometry" />
        </mxCell>
        <mxCell id="4GzgXwksy4O0eHDeEKzl-171" value="" style="rounded=0;whiteSpace=wrap;html=1;fillColor=#bac8d3;strokeColor=#23445d;" vertex="1" parent="1">
          <mxGeometry x="365" y="650" width="60" height="80" as="geometry" />
        </mxCell>
        <mxCell id="4GzgXwksy4O0eHDeEKzl-172" value="" style="rounded=0;whiteSpace=wrap;html=1;fillColor=#d0cee2;strokeColor=#56517e;" vertex="1" parent="1">
          <mxGeometry x="375" y="660" width="60" height="80" as="geometry" />
        </mxCell>
        <mxCell id="4GzgXwksy4O0eHDeEKzl-173" value="" style="rounded=0;whiteSpace=wrap;html=1;fillColor=#d0cee2;strokeColor=#56517e;" vertex="1" parent="1">
          <mxGeometry x="385" y="670" width="60" height="80" as="geometry" />
        </mxCell>
        <mxCell id="4GzgXwksy4O0eHDeEKzl-174" value="" style="rounded=0;whiteSpace=wrap;html=1;fillColor=#6d8764;strokeColor=#3A5431;fontColor=#ffffff;" vertex="1" parent="1">
          <mxGeometry x="395" y="680" width="60" height="80" as="geometry" />
        </mxCell>
        <mxCell id="4GzgXwksy4O0eHDeEKzl-175" value="" style="rounded=0;whiteSpace=wrap;html=1;fillColor=#6d8764;strokeColor=#3A5431;fontColor=#ffffff;" vertex="1" parent="1">
          <mxGeometry x="405" y="690" width="60" height="80" as="geometry" />
        </mxCell>
        <mxCell id="4GzgXwksy4O0eHDeEKzl-176" value="" style="rounded=0;whiteSpace=wrap;html=1;fillColor=#bac8d3;strokeColor=#23445d;" vertex="1" parent="1">
          <mxGeometry x="525" y="630" width="60" height="80" as="geometry" />
        </mxCell>
        <mxCell id="4GzgXwksy4O0eHDeEKzl-177" value="" style="rounded=0;whiteSpace=wrap;html=1;fillColor=#bac8d3;strokeColor=#23445d;" vertex="1" parent="1">
          <mxGeometry x="535" y="640" width="60" height="80" as="geometry" />
        </mxCell>
        <mxCell id="4GzgXwksy4O0eHDeEKzl-178" value="" style="rounded=0;whiteSpace=wrap;html=1;fillColor=#d0cee2;strokeColor=#56517e;" vertex="1" parent="1">
          <mxGeometry x="545" y="650" width="60" height="80" as="geometry" />
        </mxCell>
        <mxCell id="4GzgXwksy4O0eHDeEKzl-179" value="" style="rounded=0;whiteSpace=wrap;html=1;fillColor=#d0cee2;strokeColor=#56517e;" vertex="1" parent="1">
          <mxGeometry x="555" y="660" width="60" height="80" as="geometry" />
        </mxCell>
        <mxCell id="4GzgXwksy4O0eHDeEKzl-180" value="" style="rounded=0;whiteSpace=wrap;html=1;fillColor=#6d8764;strokeColor=#3A5431;fontColor=#ffffff;" vertex="1" parent="1">
          <mxGeometry x="565" y="670" width="60" height="80" as="geometry" />
        </mxCell>
        <mxCell id="4GzgXwksy4O0eHDeEKzl-181" value="" style="rounded=0;whiteSpace=wrap;html=1;fillColor=#6d8764;strokeColor=#3A5431;fontColor=#ffffff;" vertex="1" parent="1">
          <mxGeometry x="575" y="680" width="60" height="80" as="geometry" />
        </mxCell>
        <mxCell id="4GzgXwksy4O0eHDeEKzl-182" value="" style="rounded=0;whiteSpace=wrap;html=1;fillColor=#0050ef;strokeColor=#001DBC;fontColor=#ffffff;" vertex="1" parent="1">
          <mxGeometry x="585" y="690" width="60" height="80" as="geometry" />
        </mxCell>
        <mxCell id="4GzgXwksy4O0eHDeEKzl-183" value="" style="rounded=0;whiteSpace=wrap;html=1;fillColor=#0050ef;strokeColor=#001DBC;fontColor=#ffffff;" vertex="1" parent="1">
          <mxGeometry x="595" y="700" width="60" height="80" as="geometry" />
        </mxCell>
        <mxCell id="4GzgXwksy4O0eHDeEKzl-184" value="" style="curved=1;endArrow=classic;html=1;rounded=0;" edge="1" parent="1">
          <mxGeometry width="50" height="50" relative="1" as="geometry">
            <mxPoint x="165" y="695" as="sourcePoint" />
            <mxPoint x="685" y="695" as="targetPoint" />
            <Array as="points">
              <mxPoint x="320" y="555" />
              <mxPoint x="450" y="505" />
              <mxPoint x="610" y="545" />
            </Array>
          </mxGeometry>
        </mxCell>
        <mxCell id="4GzgXwksy4O0eHDeEKzl-185" value="" style="curved=1;endArrow=classic;html=1;rounded=0;entryX=0;entryY=0;entryDx=0;entryDy=0;" edge="1" parent="1" target="4GzgXwksy4O0eHDeEKzl-165">
          <mxGeometry width="50" height="50" relative="1" as="geometry">
            <mxPoint x="495" y="695" as="sourcePoint" />
            <mxPoint x="670" y="695" as="targetPoint" />
            <Array as="points">
              <mxPoint x="590" y="480" />
            </Array>
          </mxGeometry>
        </mxCell>
        <mxCell id="4GzgXwksy4O0eHDeEKzl-188" value="" style="curved=1;endArrow=classic;html=1;rounded=0;exitX=0;exitY=0;exitDx=0;exitDy=0;entryX=0;entryY=0;entryDx=0;entryDy=0;" edge="1" parent="1" source="4GzgXwksy4O0eHDeEKzl-158" target="4GzgXwksy4O0eHDeEKzl-165">
          <mxGeometry width="50" height="50" relative="1" as="geometry">
            <mxPoint x="505" y="730" as="sourcePoint" />
            <mxPoint x="680" y="720" as="targetPoint" />
            <Array as="points">
              <mxPoint x="555" y="440" />
            </Array>
          </mxGeometry>
        </mxCell>
      </root>
    </mxGraphModel>
  </diagram>
</mxfile>
